PathFileType	4	(X/Y/Z)	C:/Users/beibeiliu/ov580/test_trc\sequence.37_training_dense_right.trc
DataRate	CameraRate	NumFrames	NumMarkers	Units	OrigDataRate	OrigDataStartFrame	OrigNumFrames
120	120	21	19	mm	120	35	69
Frame#	Time	ThumbCMC			ThumbMCP			ThumbIP			ThumbTip			IndexMCP			IndexPIP			IndexTip			MiddleMCP			MiddlePIP			MiddleTip			RingMCP			RingPIP			RingTip			PinkyMCP			PinkyPIP			PinkyTip			BackHand1			BackHand2			BackHand3	
		X0	Y0	Z0	X1	Y1	Z1	X2	Y2	Z2	X3	Y3	Z3	X4	Y4	Z4	X5	Y5	Z5	X6	Y6	Z6	X7	Y7	Z7	X8	Y8	Z8	X9	Y9	Z9	X10	Y10	Z10	X11	Y11	Z11	X12	Y12	Z12	X13	Y13	Z13	X14	Y14	Z14	X15	Y15	Z15	X16	Y16	Z16	X17	Y17	Z17	X18	Y18	Z18	
34	0.283333	134.218	-13.9269	139.261	132.314	-45.9292	133.839	135.215	-64.9229	123.113	139.884	-87.8117	106.241	163.695	-26.5798	72.8804	172.628	-53.1489	55.2476	186.48	-75.0546	59.5214	179.456	-25.1805	66.7526	192.188	-49.0239	55.8781	202.055	-82.3864	67.2399	197.684	-18.5251	75.4862	209.972	-41.0138	64.1035	212.57	-75.2502	70.4294	211.479	-12.1241	91.4383	221.878	-34.5323	78.437	221.025	-63.5539	78.5566	185.094	17.611	116.52	175.181	31.6361	139.171	149.939	13.7588	119.293	
35	0.291667	119.484	-1.95888	145.355	109.142	-35.4567	139.08	101.397	-56.7388	130.902	106.975	-76.9135	117.243	137.628	-32.2769	73.8828	145.746	-56.6146	65.6622	148.175	-85.2131	70.5823	159.153	-34.6146	70.0762	163.262	-63.9472	63.2078	166.062	-93.8057	79.0571	179.587	-31.2581	80.0713	178.689	-61.759	69.2638	178.288	-92.2772	81.4508	191.333	-28.955	91.2371	193.641	-50.908	83.5388	186.855	-81.2791	89.5378	172.085	11.623	113.286	171.06	30.3151	138.496	143.513	18.0308	120.237	
36	0.3	112.367	12.3799	142.62	93.0309	-10.1655	143.607	73.6209	-30.9342	130.423	68.5689	-50.1828	120.737	121.809	-23.3157	77.0082	112.355	-48.602	66.0972	109.507	-75.9501	74.9951	133.577	-32.608	72.1811	128.328	-61.1642	66.6663	113.296	-90.2633	83.1225	154.431	-38.3532	81.5558	143.733	-68.3597	73.2779	128.964	-92.2936	85.1306	171.375	-41.0484	96.398	159.701	-69.384	85.6133	144.518	-86.6809	89.6298	167.025	2.43997	114.859	171.899	20.2987	133.5	143.178	23.6555	122.672	
37	0.308333	120.478	30.4051	143.646	88.4606	22.2817	140.814	62.736	10.3575	126.716	50.2803	-5.95437	116.493	111.607	-6.23501	76.5309	95.4921	-26.6079	63.8634	72.5204	-46.0567	67.0634	120.539	-23.2482	71.0062	101.152	-46.5298	64.5879	75.3803	-65.2618	79.1385	134.534	-36.8639	80.3742	110.227	-58.3088	71.8151	86.8391	-70.5576	79.7838	145.181	-48.9505	94.9561	123.585	-66.0818	85.9706	98.3305	-75.5955	88.2129	165.511	-5.64503	114.688	177.733	5.21153	133.944	149.234	21.9506	117.482	
38	0.316667	135.207	42.2993	140.597	104.023	49.2862	134.595	77.7337	50.4347	119.145	59.939	43.0166	110.043	111.222	9.48703	70.1054	88.277	2.06021	56.8475	61.551	-9.07033	58.015	114.94	-11.2339	69.7559	87.4517	-17.1681	58.2561	52.919	-22.5558	65.2898	115.901	-26.7276	75.9894	93.2479	-37.409	67.3406	62.156	-36.5948	70.6422	122.662	-41.3007	95.0293	100.818	-50.2159	84.9952	73.8699	-49.1513	80.2166	156.871	-12.9331	115.662	171.975	-5.69898	135.051	159.076	18.6019	117.09	
39	0.325	151.443	45.3938	137.236	125.07	60.3074	124.113	105.98	68.6836	109.165	88.1834	72.2087	98.5066	124.825	21.343	69.5256	102.495	21.1813	50.042	73.4229	21.2143	43.5442	116.013	1.54202	62.7619	87.3028	1.53912	49.9832	55.2162	8.39551	52.1282	108.597	-19.5043	72.2505	84.9151	-15.8974	59.8264	56.0856	-4.95764	58.9981	108.572	-28.7856	89.9933	84.7346	-30.5502	77.0318	59.8323	-22.0675	68.8381	148.262	-21.4491	114.666	163.986	-20.1995	140.097	164.501	10.8093	116.572	
40	0.333333	164.599	33.548	132.529	148.085	54.9939	120.83	136.102	70.8781	102.311	121	76.5244	84.8784	139.014	14.2318	64.8443	117.712	17.361	45.6388	90.3923	26.7785	33.4339	123.1	-4.92209	62.4639	103.149	5.40891	44.8023	73.1179	22.1986	37.6088	110.94	-18.8467	73.621	90.7319	-8.86407	53.8182	66.9451	6.24983	46.6901	101.919	-28.7116	88.1675	82.6127	-21.6779	71.1521	63.8367	-9.50934	57.9522	142.926	-26.54	114.882	156.096	-31.261	140.942	164.883	-5.34272	120.489	
41	0.341667	176.506	16.4517	134.161	170.012	41.7334	119.251	162.46	54.7494	94.5152	153.048	65.6856	73.6516	158.486	-2.62144	63.3498	141.221	3.29961	40.3972	123.109	15.1575	25.3124	138.854	-16.9135	58.0393	119.731	-7.36667	38.9207	96.773	14.9857	27.2326	121.416	-27.7796	68.2176	109.512	-18.0877	48.4342	87.9155	4.74928	34.5487	109.415	-33.509	87.9798	97.5499	-22.4649	62.7313	82.4774	-12.3222	47.6454	144.997	-39.2295	119.983	150.955	-39.4305	143.871	173.815	-19.4141	124.809	
42	0.35	190.58	-0.496243	136.47	188.535	22.7443	118.372	190.047	36.0017	91.1296	185.69	43.7642	67.3643	178.579	-28.6199	66.0197	169.925	-23.5533	43.5016	155.493	-10.6408	23.3603	160.013	-40.8542	61.6658	149.487	-32.6673	39.2074	134.289	-8.44986	19.4126	146.077	-44.4266	70.8823	134.97	-37.9058	44.3208	126.369	-18.4895	26.7516	126.334	-47.1673	86.0809	119.701	-42.4751	62.0147	112.805	-29.2891	37.3777	154.915	-51.6782	125.129	155.967	-50.8402	149.697	184.271	-36.49	129.419	
43	0.358333	209.059	-8.98665	143.208	206.904	8.29346	119.832	213.207	18.2467	95.4127	212.524	21.6016	72.1738	207.717	-49.48	81.356	206.453	-47.1218	47.5181	195.705	-37.7182	27.4226	191.995	-60.4755	75.6106	189.438	-56.2238	43.7375	178.229	-37.9621	20.9655	174.355	-66.1471	79.4814	170.3	-61.392	47.1548	160.792	-45.6532	26.5433	153.456	-65.691	87.1115	153.945	-61.5615	62.5925	149.796	-52.6887	37.2205	173.244	-62.7076	132.927	170.699	-59.4335	157.393	197.778	-48.6311	144.182	
44	0.366667	222.457	-11.0081	146.889	224.998	6.09383	125.054	233.899	14.0887	100.554	237.171	14.8532	75.3665	242.134	-56.9731	90.9903	243.635	-57.2709	65.0356	231.051	-51.8608	37.6177	227.695	-69.9068	86.1888	225.429	-70.7629	55.5289	218.958	-54.5789	28.3796	208.387	-77.1794	86.1464	209.951	-75.9047	56.6532	203.154	-62.3452	33.3415	189.112	-72.7195	94.6147	189.763	-74.5537	67.0348	193.974	-66.7779	43.8246	198.036	-69.5778	138.51	187.177	-57.8963	167.067	219.758	-46.9566	155.554	
45	0.375	234.34	4.14015	151.874	238.21	20.8233	125.647	248.582	29.9175	102.18	253.153	28.1107	76.2935	267	-39.7119	105.013	274.541	-39.8738	75.4776	266.956	-37.9816	45.7396	261.252	-55.8129	97.8653	265.26	-57.8287	69.3309	255.067	-47.6656	37.1613	242.767	-65.0317	99.0853	247.831	-67.7793	66.57	243.391	-57.0555	40.2511	222.738	-71.3162	99.1753	228.468	-69.5719	78.0649	229.749	-67.0432	47.8995	224.719	-55.97	146.68	207.399	-51.8605	172.363	242.284	-30.8667	160.728	
46	0.383333	234.679	28.9666	151.246	233.166	40.8295	124.739	241.7	52.6239	97.5252	245.642	49.0632	77.9201	284.836	-2.022	106.813	289.925	-6.59585	78.7049	284.294	-7.56671	47.993	282.231	-24.0667	101.623	289.197	-24.0614	71.0177	278.988	-18.7195	40.8417	270.136	-37.7177	102.22	277.338	-38.5953	70.488	270.966	-30.0472	43.0989	253.663	-52.4455	101.479	259.717	-49.8233	74.6997	263.483	-41.3778	53.3425	245.868	-39.2002	144.532	229.583	-36.1048	169.237	251.109	-8.20078	162.19	
47	0.391667	222.348	42.5978	148.552	215.174	57.5861	118.115	217.706	67.4887	93.2628	226.76	61.9352	69.438	282.118	38.2039	104.992	290.658	32.3775	75.4544	288.66	32.9011	49.2909	291.036	13.4825	98.8887	296.737	16.1395	67.0507	286.074	18.2309	36.8545	284.5	-3.06711	101.53	291.725	-4.09114	68.4429	284.094	1.29791	43.6513	274.816	-20.5388	103.553	281.664	-15.3018	80.1625	284.097	-11.071	54.861	261.403	-10.7888	148.862	242.331	-10.4053	172.413	250.564	21.7873	162.705	
48	0.4	203.45	52.013	138.724	190.463	56.9302	110.177	190.74	63.3542	81.1072	195.688	61.1966	60.8134	265.855	63.2618	90.189	270.074	65.8742	67.3019	271.536	55.0121	41.1424	279.842	45.5725	90.2823	283.505	48.1393	60.8206	273.053	40.6473	29.8561	280.663	30.3881	93.7517	287.041	27.971	66.4058	276.681	23.092	33.1863	277.524	6.67411	100.706	285.338	7.27752	74.7271	283.207	13.3678	50.1695	260.441	16.2713	144.611	247.673	11.1914	166.565	240.19	44.4287	153.769	
49	0.408333	185.144	48.3169	128.589	170.48	46.3885	98.039	163.524	46.8741	75.3678	170.917	43.4445	50.4182	234.222	68.9065	77.7409	240.144	66.4736	46.5943	241.233	54.6263	22.23	250.199	60.8151	78.7403	258.272	53.6417	44.0084	247.995	40.5588	19.8831	264.003	42.7173	81.2254	265.758	42.7192	53.9969	257.807	29.1827	24.1879	263.898	24.7818	93.1438	271.749	21.4237	66.2431	269.515	22.2298	41.8949	249.215	35.5126	133.313	235.481	29.775	157.321	221.102	55.779	142.593	
50	0.416667	161.632	38.4002	120.494	147.438	25.1249	96.454	143.975	20.2055	72.7392	150.158	14.244	46.3433	203.661	59.7669	61.4883	208.26	51.8246	34.2284	211.852	35.0387	14.0307	224.048	54.4898	60.0245	226.454	45.0441	34.2567	225.125	18.3914	12.8889	241.025	41.5377	70.9648	243.422	35.0193	44.0453	237.194	13.5737	18.598	246.39	26.2283	83.3194	249.313	23.1813	57.9327	251.24	9.57304	34.4059	228.194	43.9358	120.161	220.503	40.6639	148.744	198.479	54.4212	131.455	
51	0.425	142.805	19.9363	123.121	137.761	-1.22436	98.0663	135.436	-13.7217	78.2812	141.734	-23.881	54.6281	179.404	33.6442	57.3184	184.826	19.7659	33.1751	187.417	-2.35187	13.5426	198.959	32.6819	56.8365	203.268	17.5473	29.9666	200.775	-14.325	13.0549	219.297	26.7617	65.8104	219.021	12.6732	36.1549	218.628	-14.0269	21.1079	227.679	17.4165	77.8983	234.266	6.25452	58.0566	230.698	-12.0687	32.6947	208.013	39.6524	112.602	204.625	41.0476	143.688	174.586	48.3495	121.651	
52	0.433333	130.15	2.02536	125.394	128.15	-28.5519	111.405	131.484	-45.818	92.5067	135.216	-60.834	75.4778	162.296	0.583634	55.1775	165.844	-19.0995	34.9173	177.527	-46.6481	27.9457	182.395	3.88817	53.6188	184.428	-17.6996	34.5657	191.251	-51.5221	29.7851	198.317	3.6015	62.1818	203.72	-16.4462	42.8144	204.644	-47.4394	34.466	210.268	0.80354	80.5303	214.914	-15.8422	60.1978	214.631	-39.4409	45.633	191.582	29.0237	109.803	181.729	37.2702	139.529	157.72	32.5525	116.922	
53	0.441667	117.758	-9.02957	131.56	115.28	-42.4402	125.082	117.362	-63.3461	112.383	125.209	-84.0013	93.5031	144.013	-19.7636	62.8621	151.692	-41.6498	47.0312	160.443	-69.6686	45.3186	161.84	-18.3114	58.6321	170.394	-47.4228	41.8319	175.084	-77.4678	45.9116	184.516	-17.4138	64.5725	189.211	-40.4079	50.4045	183.976	-73.3995	49.3181	197.086	-16.2044	83.791	202.505	-37.3477	68.4113	196.575	-62.9908	58.9461	175.279	18.2003	109.137	168.356	30.5304	133.574	139.39	21.9397	113.502	
54	0.45	109.046	-8.08921	137.481	102.217	-39.0809	136.084	96.3704	-64.9525	123.419	99.6908	-83.9394	113.141	128.214	-32.0488	66.2425	128.58	-59.1656	53.9363	132.582	-84.485	57.8998	145.168	-33.4231	62.5281	146.198	-64.8114	51.6912	142.774	-92.3906	60.5392	163.503	-34.652	69.0681	168.118	-60.2796	58.5724	159.554	-88.8925	63.163	179.044	-34.853	84.0036	177.68	-59.4286	74.1673	169.747	-89.1279	73.9764	162.762	4.67217	106.85	163.582	22.8362	132.997	131.254	15.7723	112.446	
